<?xml version="1.0" encoding="utf-8"?>
<!-- Generator: Adobe Illustrator 19.1.0, SVG Export Plug-In . SVG Version: 6.00 Build 0)  -->
<svg version="1.1" id="Layer_1" xmlns="http://www.w3.org/2000/svg" xmlns:xlink="http://www.w3.org/1999/xlink" x="0px" y="0px"
	 viewBox="0 0 1233.1 957.3" style="enable-background:new 0 0 1233.1 957.3;" xml:space="preserve">
<style type="text/css">
	.st0{fill:#42C5E7;}
</style>
<circle class="st0" cx="626.4" cy="450.9" r="141.5"/>
<g>
	<g>
		<path class="st0" d="M626.4,617.6c-100.3,0-181.6,74.2-181.6,165.6c0,20.9,4.2,40.8,12,59.2c0,0,182.4,120.9,342.3-7.4l0,0
			c5.9-16.3,9.1-33.7,9.1-51.8C808.1,691.7,726.7,617.6,626.4,617.6z"/>
	</g>
</g>
<circle class="st0" cx="989.7" cy="327.4" r="141.5"/>
<g>
	<g>
		<path class="st0" d="M989.7,494.1c-100.3,0-181.6,74.2-181.6,165.6c0,20.9,4.2,40.8,12,59.2c0,0,182.4,120.9,342.3-7.4l0,0
			c5.9-16.3,9.1-33.7,9.1-51.8C1171.3,568.2,1090,494.1,989.7,494.1z"/>
	</g>
</g>
<circle class="st0" cx="263.1" cy="336.6" r="141.5"/>
<g>
	<g>
		<path class="st0" d="M263.1,503.3c-100.3,0-181.6,74.2-181.6,165.6c0,20.9,4.2,40.8,12,59.2c0,0,182.4,120.9,342.3-7.4l0,0
			c5.9-16.3,9.1-33.7,9.1-51.8C444.8,577.5,363.4,503.3,263.1,503.3z"/>
	</g>
</g>
</svg>
